<mxfile host="app.diagrams.net" agent="Mozilla/5.0 (Windows NT 10.0; Win64; x64) AppleWebKit/537.36 (KHTML, like Gecko) Chrome/130.0.0.0 Safari/537.36" version="24.8.3">
  <diagram id="zVbvCBi2NvuFoAg4_YPd" name="Página-1">
    <mxGraphModel dx="954" dy="661" grid="1" gridSize="10" guides="1" tooltips="1" connect="1" arrows="1" fold="1" page="1" pageScale="1" pageWidth="827" pageHeight="1169" math="0" shadow="0">
      <root>
        <mxCell id="0" />
        <mxCell id="1" parent="0" />
        <mxCell id="4VLI2H_Ible5iAtLYrgy-25" style="edgeStyle=orthogonalEdgeStyle;rounded=0;orthogonalLoop=1;jettySize=auto;html=1;exitX=0;exitY=0.5;exitDx=0;exitDy=0;entryX=0;entryY=0.5;entryDx=0;entryDy=0;entryPerimeter=0;" parent="1" edge="1">
          <mxGeometry relative="1" as="geometry">
            <mxPoint x="50" y="260" as="targetPoint" />
          </mxGeometry>
        </mxCell>
        <mxCell id="4VLI2H_Ible5iAtLYrgy-26" value="No" style="edgeLabel;html=1;align=center;verticalAlign=middle;resizable=0;points=[];" parent="4VLI2H_Ible5iAtLYrgy-25" vertex="1" connectable="0">
          <mxGeometry x="-0.0143" y="1" relative="1" as="geometry">
            <mxPoint x="-9" y="-12" as="offset" />
          </mxGeometry>
        </mxCell>
        <mxCell id="4VLI2H_Ible5iAtLYrgy-36" value="" style="edgeStyle=orthogonalEdgeStyle;rounded=0;orthogonalLoop=1;jettySize=auto;html=1;fontSize=9;" parent="1" source="4VLI2H_Ible5iAtLYrgy-34" target="4VLI2H_Ible5iAtLYrgy-35" edge="1">
          <mxGeometry relative="1" as="geometry" />
        </mxCell>
        <mxCell id="4VLI2H_Ible5iAtLYrgy-34" value="Inicio de la&lt;div style=&quot;font-size: 9px;&quot;&gt;aplicacion&lt;/div&gt;" style="strokeWidth=2;html=1;shape=mxgraph.flowchart.start_2;whiteSpace=wrap;fontSize=9;" parent="1" vertex="1">
          <mxGeometry x="148" y="60" width="100" height="100" as="geometry" />
        </mxCell>
        <mxCell id="4VLI2H_Ible5iAtLYrgy-38" value="" style="edgeStyle=orthogonalEdgeStyle;rounded=0;orthogonalLoop=1;jettySize=auto;html=1;fontSize=9;" parent="1" source="4VLI2H_Ible5iAtLYrgy-35" target="4VLI2H_Ible5iAtLYrgy-37" edge="1">
          <mxGeometry relative="1" as="geometry" />
        </mxCell>
        <mxCell id="4VLI2H_Ible5iAtLYrgy-35" value="MainActivity" style="whiteSpace=wrap;html=1;strokeWidth=2;fontSize=9;" parent="1" vertex="1">
          <mxGeometry x="138" y="260" width="120" height="60" as="geometry" />
        </mxCell>
        <mxCell id="4VLI2H_Ible5iAtLYrgy-40" value="" style="edgeStyle=orthogonalEdgeStyle;rounded=0;orthogonalLoop=1;jettySize=auto;html=1;fontSize=9;" parent="1" source="4VLI2H_Ible5iAtLYrgy-37" target="4VLI2H_Ible5iAtLYrgy-39" edge="1">
          <mxGeometry relative="1" as="geometry" />
        </mxCell>
        <mxCell id="4VLI2H_Ible5iAtLYrgy-46" value="Siguiente" style="edgeLabel;html=1;align=center;verticalAlign=middle;resizable=0;points=[];fontSize=9;" parent="4VLI2H_Ible5iAtLYrgy-40" vertex="1" connectable="0">
          <mxGeometry x="-0.1571" y="-1" relative="1" as="geometry">
            <mxPoint as="offset" />
          </mxGeometry>
        </mxCell>
        <mxCell id="4VLI2H_Ible5iAtLYrgy-48" value="" style="edgeStyle=orthogonalEdgeStyle;rounded=0;orthogonalLoop=1;jettySize=auto;html=1;fontSize=9;exitX=1;exitY=0.5;exitDx=0;exitDy=0;" parent="1" source="4VLI2H_Ible5iAtLYrgy-88" target="4VLI2H_Ible5iAtLYrgy-47" edge="1">
          <mxGeometry relative="1" as="geometry">
            <mxPoint x="428" y="430" as="sourcePoint" />
          </mxGeometry>
        </mxCell>
        <mxCell id="4VLI2H_Ible5iAtLYrgy-49" value="Escanear" style="edgeLabel;html=1;align=center;verticalAlign=middle;resizable=0;points=[];fontSize=9;" parent="4VLI2H_Ible5iAtLYrgy-48" vertex="1" connectable="0">
          <mxGeometry x="-0.1321" y="1" relative="1" as="geometry">
            <mxPoint as="offset" />
          </mxGeometry>
        </mxCell>
        <mxCell id="4VLI2H_Ible5iAtLYrgy-89" value="" style="edgeStyle=orthogonalEdgeStyle;rounded=0;orthogonalLoop=1;jettySize=auto;html=1;" parent="1" source="4VLI2H_Ible5iAtLYrgy-37" target="4VLI2H_Ible5iAtLYrgy-88" edge="1">
          <mxGeometry relative="1" as="geometry" />
        </mxCell>
        <mxCell id="4VLI2H_Ible5iAtLYrgy-37" value="¿Que boton&lt;div style=&quot;font-size: 9px;&quot;&gt;se pulsara?&lt;/div&gt;" style="rhombus;whiteSpace=wrap;html=1;strokeWidth=2;fontSize=9;" parent="1" vertex="1">
          <mxGeometry x="158" y="390" width="80" height="80" as="geometry" />
        </mxCell>
        <mxCell id="4VLI2H_Ible5iAtLYrgy-41" style="edgeStyle=orthogonalEdgeStyle;rounded=0;orthogonalLoop=1;jettySize=auto;html=1;exitX=0;exitY=0.5;exitDx=0;exitDy=0;entryX=0.25;entryY=1;entryDx=0;entryDy=0;fontSize=9;" parent="1" source="4VLI2H_Ible5iAtLYrgy-39" target="4VLI2H_Ible5iAtLYrgy-35" edge="1">
          <mxGeometry relative="1" as="geometry">
            <Array as="points">
              <mxPoint x="130" y="590" />
              <mxPoint x="130" y="360" />
              <mxPoint x="168" y="360" />
            </Array>
          </mxGeometry>
        </mxCell>
        <mxCell id="4VLI2H_Ible5iAtLYrgy-42" value="No" style="edgeLabel;html=1;align=center;verticalAlign=middle;resizable=0;points=[];fontSize=9;" parent="4VLI2H_Ible5iAtLYrgy-41" vertex="1" connectable="0">
          <mxGeometry x="0.2223" y="-2" relative="1" as="geometry">
            <mxPoint x="6" y="177" as="offset" />
          </mxGeometry>
        </mxCell>
        <mxCell id="4VLI2H_Ible5iAtLYrgy-44" value="" style="edgeStyle=orthogonalEdgeStyle;rounded=0;orthogonalLoop=1;jettySize=auto;html=1;fontSize=9;" parent="1" source="4VLI2H_Ible5iAtLYrgy-39" target="4VLI2H_Ible5iAtLYrgy-43" edge="1">
          <mxGeometry relative="1" as="geometry" />
        </mxCell>
        <mxCell id="4VLI2H_Ible5iAtLYrgy-45" value="Si" style="edgeLabel;html=1;align=center;verticalAlign=middle;resizable=0;points=[];fontSize=9;" parent="4VLI2H_Ible5iAtLYrgy-44" vertex="1" connectable="0">
          <mxGeometry x="-0.2254" y="-1" relative="1" as="geometry">
            <mxPoint as="offset" />
          </mxGeometry>
        </mxCell>
        <mxCell id="4VLI2H_Ible5iAtLYrgy-39" value="¿Se&amp;nbsp;&lt;div style=&quot;font-size: 9px;&quot;&gt;introdujo&lt;div style=&quot;font-size: 9px;&quot;&gt;texto?&lt;/div&gt;&lt;/div&gt;" style="rhombus;whiteSpace=wrap;html=1;strokeWidth=2;fontSize=9;" parent="1" vertex="1">
          <mxGeometry x="158" y="550" width="80" height="80" as="geometry" />
        </mxCell>
        <mxCell id="4VLI2H_Ible5iAtLYrgy-60" value="" style="edgeStyle=orthogonalEdgeStyle;rounded=0;orthogonalLoop=1;jettySize=auto;html=1;entryX=0.5;entryY=0;entryDx=0;entryDy=0;entryPerimeter=0;fontSize=9;" parent="1" source="4VLI2H_Ible5iAtLYrgy-70" target="4VLI2H_Ible5iAtLYrgy-61" edge="1">
          <mxGeometry relative="1" as="geometry">
            <mxPoint x="198" y="860" as="targetPoint" />
          </mxGeometry>
        </mxCell>
        <mxCell id="4VLI2H_Ible5iAtLYrgy-43" value="ViewPdfActivity" style="whiteSpace=wrap;html=1;strokeWidth=2;fontSize=9;" parent="1" vertex="1">
          <mxGeometry x="138" y="720" width="120" height="60" as="geometry" />
        </mxCell>
        <mxCell id="4VLI2H_Ible5iAtLYrgy-50" style="edgeStyle=orthogonalEdgeStyle;rounded=0;orthogonalLoop=1;jettySize=auto;html=1;exitX=0;exitY=0.5;exitDx=0;exitDy=0;entryX=1;entryY=0.5;entryDx=0;entryDy=0;exitPerimeter=0;fontSize=9;" parent="1" source="4VLI2H_Ible5iAtLYrgy-54" target="4VLI2H_Ible5iAtLYrgy-35" edge="1">
          <mxGeometry relative="1" as="geometry">
            <mxPoint x="454" y="290" as="targetPoint" />
            <Array as="points">
              <mxPoint x="374" y="290" />
              <mxPoint x="374" y="290" />
            </Array>
          </mxGeometry>
        </mxCell>
        <mxCell id="4VLI2H_Ible5iAtLYrgy-55" style="edgeStyle=orthogonalEdgeStyle;rounded=0;orthogonalLoop=1;jettySize=auto;html=1;exitX=1;exitY=0.5;exitDx=0;exitDy=0;entryX=0.75;entryY=0;entryDx=0;entryDy=0;fontSize=9;" parent="1" source="4VLI2H_Ible5iAtLYrgy-47" target="4VLI2H_Ible5iAtLYrgy-35" edge="1">
          <mxGeometry relative="1" as="geometry">
            <mxPoint x="424" y="260" as="targetPoint" />
            <Array as="points">
              <mxPoint x="704" y="430" />
              <mxPoint x="704" y="220" />
              <mxPoint x="228" y="220" />
            </Array>
          </mxGeometry>
        </mxCell>
        <mxCell id="4VLI2H_Ible5iAtLYrgy-56" value="Pulsar&lt;div style=&quot;font-size: 9px;&quot;&gt;cancelar&lt;/div&gt;" style="edgeLabel;html=1;align=center;verticalAlign=middle;resizable=0;points=[];fontSize=9;" parent="4VLI2H_Ible5iAtLYrgy-55" vertex="1" connectable="0">
          <mxGeometry x="-0.8683" y="2" relative="1" as="geometry">
            <mxPoint as="offset" />
          </mxGeometry>
        </mxCell>
        <mxCell id="4VLI2H_Ible5iAtLYrgy-47" value="¿Que hara&lt;div style=&quot;font-size: 9px;&quot;&gt;ahora?&lt;/div&gt;" style="rhombus;whiteSpace=wrap;html=1;strokeWidth=2;fontSize=9;" parent="1" vertex="1">
          <mxGeometry x="514" y="390" width="80" height="80" as="geometry" />
        </mxCell>
        <mxCell id="4VLI2H_Ible5iAtLYrgy-52" value="" style="edgeStyle=orthogonalEdgeStyle;rounded=0;orthogonalLoop=1;jettySize=auto;html=1;exitX=0.5;exitY=0;exitDx=0;exitDy=0;entryX=0.5;entryY=1;entryDx=0;entryDy=0;entryPerimeter=0;fontSize=9;" parent="1" source="4VLI2H_Ible5iAtLYrgy-47" target="4VLI2H_Ible5iAtLYrgy-54" edge="1">
          <mxGeometry relative="1" as="geometry">
            <mxPoint x="554" y="390" as="sourcePoint" />
            <mxPoint x="454" y="290" as="targetPoint" />
          </mxGeometry>
        </mxCell>
        <mxCell id="4VLI2H_Ible5iAtLYrgy-53" value="Escanear" style="edgeLabel;html=1;align=center;verticalAlign=middle;resizable=0;points=[];fontSize=9;" parent="4VLI2H_Ible5iAtLYrgy-52" vertex="1" connectable="0">
          <mxGeometry x="-0.6172" y="1" relative="1" as="geometry">
            <mxPoint x="1" y="-10" as="offset" />
          </mxGeometry>
        </mxCell>
        <mxCell id="4VLI2H_Ible5iAtLYrgy-54" value="Al escanear quedara&lt;div style=&quot;font-size: 9px;&quot;&gt;rellenado el campo&lt;/div&gt;&lt;div style=&quot;font-size: 9px;&quot;&gt;de texto con el&lt;/div&gt;&lt;div style=&quot;font-size: 9px;&quot;&gt;codigo correspondiente&lt;/div&gt;&lt;div style=&quot;font-size: 9px;&quot;&gt;al codigo de barras&lt;/div&gt;" style="strokeWidth=2;html=1;shape=mxgraph.flowchart.annotation_1;align=left;pointerEvents=1;fontSize=9;" parent="1" vertex="1">
          <mxGeometry x="529" y="240" width="50" height="100" as="geometry" />
        </mxCell>
        <mxCell id="4VLI2H_Ible5iAtLYrgy-71" style="edgeStyle=orthogonalEdgeStyle;rounded=0;orthogonalLoop=1;jettySize=auto;html=1;exitX=0;exitY=0.5;exitDx=0;exitDy=0;exitPerimeter=0;entryX=0.25;entryY=0;entryDx=0;entryDy=0;fontSize=9;" parent="1" source="4VLI2H_Ible5iAtLYrgy-61" target="4VLI2H_Ible5iAtLYrgy-35" edge="1">
          <mxGeometry relative="1" as="geometry">
            <Array as="points">
              <mxPoint x="108" y="1050" />
              <mxPoint x="108" y="240" />
              <mxPoint x="168" y="240" />
            </Array>
          </mxGeometry>
        </mxCell>
        <mxCell id="4VLI2H_Ible5iAtLYrgy-72" value="Cancelar" style="edgeLabel;html=1;align=center;verticalAlign=middle;resizable=0;points=[];fontSize=9;" parent="4VLI2H_Ible5iAtLYrgy-71" vertex="1" connectable="0">
          <mxGeometry x="-0.9394" y="2" relative="1" as="geometry">
            <mxPoint y="-2" as="offset" />
          </mxGeometry>
        </mxCell>
        <mxCell id="4VLI2H_Ible5iAtLYrgy-74" value="" style="edgeStyle=orthogonalEdgeStyle;rounded=0;orthogonalLoop=1;jettySize=auto;html=1;fontSize=9;" parent="1" source="4VLI2H_Ible5iAtLYrgy-61" target="4VLI2H_Ible5iAtLYrgy-73" edge="1">
          <mxGeometry relative="1" as="geometry" />
        </mxCell>
        <mxCell id="4VLI2H_Ible5iAtLYrgy-75" value="Continuar" style="edgeLabel;html=1;align=center;verticalAlign=middle;resizable=0;points=[];fontSize=9;" parent="4VLI2H_Ible5iAtLYrgy-74" vertex="1" connectable="0">
          <mxGeometry x="-0.163" y="1" relative="1" as="geometry">
            <mxPoint as="offset" />
          </mxGeometry>
        </mxCell>
        <mxCell id="4VLI2H_Ible5iAtLYrgy-61" value="¿Qué boton&lt;div style=&quot;font-size: 9px;&quot;&gt;se pulsara?&lt;/div&gt;" style="strokeWidth=2;html=1;shape=mxgraph.flowchart.decision;whiteSpace=wrap;fontSize=9;" parent="1" vertex="1">
          <mxGeometry x="148" y="1000" width="100" height="100" as="geometry" />
        </mxCell>
        <mxCell id="4VLI2H_Ible5iAtLYrgy-69" value="" style="edgeStyle=orthogonalEdgeStyle;rounded=0;orthogonalLoop=1;jettySize=auto;html=1;entryX=0.5;entryY=0;entryDx=0;entryDy=0;entryPerimeter=0;fontSize=9;" parent="1" source="4VLI2H_Ible5iAtLYrgy-43" target="4VLI2H_Ible5iAtLYrgy-70" edge="1">
          <mxGeometry relative="1" as="geometry">
            <mxPoint x="198" y="780" as="sourcePoint" />
            <mxPoint x="198" y="1060" as="targetPoint" />
          </mxGeometry>
        </mxCell>
        <mxCell id="4VLI2H_Ible5iAtLYrgy-70" value="&lt;font style=&quot;font-size: 10px;&quot;&gt;Entre el cambio&lt;/font&gt;&lt;div style=&quot;font-size: 10px;&quot;&gt;&lt;font style=&quot;font-size: 10px;&quot;&gt;de una actividad&lt;/font&gt;&lt;/div&gt;&lt;div style=&quot;font-size: 10px;&quot;&gt;&lt;font style=&quot;font-size: 10px;&quot;&gt;a otra se habra&lt;/font&gt;&lt;/div&gt;&lt;div style=&quot;font-size: 10px;&quot;&gt;&lt;font style=&quot;font-size: 10px;&quot;&gt;generado el&lt;/font&gt;&lt;/div&gt;&lt;div style=&quot;font-size: 10px;&quot;&gt;&lt;font style=&quot;font-size: 10px;&quot;&gt;PDF y se&lt;/font&gt;&lt;/div&gt;&lt;div style=&quot;font-size: 10px;&quot;&gt;&lt;font style=&quot;font-size: 10px;&quot;&gt;visualizara&lt;/font&gt;&lt;/div&gt;&lt;div style=&quot;font-size: 10px;&quot;&gt;&lt;font style=&quot;font-size: 10px;&quot;&gt;en esta&lt;/font&gt;&lt;/div&gt;" style="strokeWidth=2;html=1;shape=mxgraph.flowchart.annotation_1;align=left;pointerEvents=1;fontSize=9;" parent="1" vertex="1">
          <mxGeometry x="173" y="840" width="50" height="100" as="geometry" />
        </mxCell>
        <mxCell id="4VLI2H_Ible5iAtLYrgy-84" value="" style="edgeStyle=orthogonalEdgeStyle;rounded=0;orthogonalLoop=1;jettySize=auto;html=1;fontSize=9;" parent="1" source="4VLI2H_Ible5iAtLYrgy-73" target="4VLI2H_Ible5iAtLYrgy-83" edge="1">
          <mxGeometry relative="1" as="geometry" />
        </mxCell>
        <mxCell id="4VLI2H_Ible5iAtLYrgy-90" value="Si" style="edgeLabel;html=1;align=center;verticalAlign=middle;resizable=0;points=[];" parent="4VLI2H_Ible5iAtLYrgy-84" vertex="1" connectable="0">
          <mxGeometry x="-0.1866" y="1" relative="1" as="geometry">
            <mxPoint as="offset" />
          </mxGeometry>
        </mxCell>
        <mxCell id="4VLI2H_Ible5iAtLYrgy-73" value="¿Se rellenaron&lt;div&gt;&amp;nbsp;los campos?&lt;/div&gt;" style="rhombus;whiteSpace=wrap;html=1;strokeWidth=2;fontSize=9;" parent="1" vertex="1">
          <mxGeometry x="158" y="1160" width="80" height="80" as="geometry" />
        </mxCell>
        <mxCell id="4VLI2H_Ible5iAtLYrgy-86" value="" style="edgeStyle=orthogonalEdgeStyle;rounded=0;orthogonalLoop=1;jettySize=auto;html=1;" parent="1" source="4VLI2H_Ible5iAtLYrgy-83" target="4VLI2H_Ible5iAtLYrgy-85" edge="1">
          <mxGeometry relative="1" as="geometry" />
        </mxCell>
        <mxCell id="4VLI2H_Ible5iAtLYrgy-87" value="Si" style="edgeLabel;html=1;align=center;verticalAlign=middle;resizable=0;points=[];" parent="4VLI2H_Ible5iAtLYrgy-86" vertex="1" connectable="0">
          <mxGeometry x="-0.1526" y="-1" relative="1" as="geometry">
            <mxPoint as="offset" />
          </mxGeometry>
        </mxCell>
        <mxCell id="4VLI2H_Ible5iAtLYrgy-83" value="¿Los&amp;nbsp;&lt;div&gt;credenciales son correctos?&lt;/div&gt;" style="rhombus;whiteSpace=wrap;html=1;strokeWidth=2;fontSize=9;" parent="1" vertex="1">
          <mxGeometry x="158" y="1320" width="80" height="80" as="geometry" />
        </mxCell>
        <mxCell id="4VLI2H_Ible5iAtLYrgy-102" value="" style="edgeStyle=orthogonalEdgeStyle;rounded=0;orthogonalLoop=1;jettySize=auto;html=1;" parent="1" source="4VLI2H_Ible5iAtLYrgy-113" target="4VLI2H_Ible5iAtLYrgy-101" edge="1">
          <mxGeometry relative="1" as="geometry" />
        </mxCell>
        <mxCell id="4VLI2H_Ible5iAtLYrgy-85" value="PhotosActivity" style="whiteSpace=wrap;html=1;fontSize=9;strokeWidth=2;" parent="1" vertex="1">
          <mxGeometry x="138" y="1460" width="120" height="60" as="geometry" />
        </mxCell>
        <mxCell id="4VLI2H_Ible5iAtLYrgy-88" value="ScannerActivity" style="whiteSpace=wrap;html=1;fontSize=9;strokeWidth=2;" parent="1" vertex="1">
          <mxGeometry x="298" y="400" width="120" height="60" as="geometry" />
        </mxCell>
        <mxCell id="4VLI2H_Ible5iAtLYrgy-91" style="edgeStyle=orthogonalEdgeStyle;rounded=0;orthogonalLoop=1;jettySize=auto;html=1;exitX=0;exitY=0.5;exitDx=0;exitDy=0;entryX=0.243;entryY=0.769;entryDx=0;entryDy=0;entryPerimeter=0;" parent="1" source="4VLI2H_Ible5iAtLYrgy-83" target="4VLI2H_Ible5iAtLYrgy-61" edge="1">
          <mxGeometry relative="1" as="geometry">
            <Array as="points">
              <mxPoint x="138" y="1360" />
              <mxPoint x="138" y="1077" />
            </Array>
          </mxGeometry>
        </mxCell>
        <mxCell id="4VLI2H_Ible5iAtLYrgy-92" value="No" style="edgeLabel;html=1;align=center;verticalAlign=middle;resizable=0;points=[];" parent="4VLI2H_Ible5iAtLYrgy-91" vertex="1" connectable="0">
          <mxGeometry x="-0.6984" relative="1" as="geometry">
            <mxPoint y="31" as="offset" />
          </mxGeometry>
        </mxCell>
        <mxCell id="4VLI2H_Ible5iAtLYrgy-95" value="" style="edgeStyle=orthogonalEdgeStyle;rounded=0;orthogonalLoop=1;jettySize=auto;html=1;exitX=0;exitY=0.5;exitDx=0;exitDy=0;entryX=1;entryY=0.5;entryDx=0;entryDy=0;entryPerimeter=0;exitPerimeter=0;" parent="1" source="4VLI2H_Ible5iAtLYrgy-100" target="4VLI2H_Ible5iAtLYrgy-61" edge="1">
          <mxGeometry relative="1" as="geometry">
            <mxPoint x="238" y="1200" as="sourcePoint" />
            <mxPoint x="354" y="1100" as="targetPoint" />
            <Array as="points" />
          </mxGeometry>
        </mxCell>
        <mxCell id="4VLI2H_Ible5iAtLYrgy-98" value="" style="edgeStyle=orthogonalEdgeStyle;rounded=0;orthogonalLoop=1;jettySize=auto;html=1;exitX=1;exitY=0.5;exitDx=0;exitDy=0;entryX=0.5;entryY=1;entryDx=0;entryDy=0;entryPerimeter=0;" parent="1" source="4VLI2H_Ible5iAtLYrgy-73" target="4VLI2H_Ible5iAtLYrgy-100" edge="1">
          <mxGeometry relative="1" as="geometry">
            <mxPoint x="238" y="1200" as="sourcePoint" />
            <mxPoint x="248" y="1050" as="targetPoint" />
            <Array as="points">
              <mxPoint x="323" y="1200" />
            </Array>
          </mxGeometry>
        </mxCell>
        <mxCell id="4VLI2H_Ible5iAtLYrgy-99" value="No" style="edgeLabel;html=1;align=center;verticalAlign=middle;resizable=0;points=[];" parent="4VLI2H_Ible5iAtLYrgy-98" vertex="1" connectable="0">
          <mxGeometry x="-0.5333" y="1" relative="1" as="geometry">
            <mxPoint x="1" y="1" as="offset" />
          </mxGeometry>
        </mxCell>
        <mxCell id="4VLI2H_Ible5iAtLYrgy-100" value="Hay que&amp;nbsp;&lt;div&gt;rellenar&lt;div style=&quot;font-size: 10px;&quot;&gt;los campos de&lt;/div&gt;&lt;div style=&quot;font-size: 10px;&quot;&gt;credenciales&amp;nbsp;&lt;/div&gt;&lt;div style=&quot;font-size: 10px;&quot;&gt;para poder&lt;/div&gt;&lt;div style=&quot;font-size: 10px;&quot;&gt;continuar&lt;/div&gt;&lt;/div&gt;" style="strokeWidth=2;html=1;shape=mxgraph.flowchart.annotation_1;align=left;pointerEvents=1;fontSize=10;" parent="1" vertex="1">
          <mxGeometry x="298" y="1000" width="50" height="100" as="geometry" />
        </mxCell>
        <mxCell id="4VLI2H_Ible5iAtLYrgy-103" style="edgeStyle=orthogonalEdgeStyle;rounded=0;orthogonalLoop=1;jettySize=auto;html=1;exitX=1;exitY=0.5;exitDx=0;exitDy=0;entryX=1;entryY=0.5;entryDx=0;entryDy=0;" parent="1" source="4VLI2H_Ible5iAtLYrgy-101" target="4VLI2H_Ible5iAtLYrgy-43" edge="1">
          <mxGeometry relative="1" as="geometry">
            <Array as="points">
              <mxPoint x="394" y="1724" />
              <mxPoint x="394" y="750" />
            </Array>
          </mxGeometry>
        </mxCell>
        <mxCell id="4VLI2H_Ible5iAtLYrgy-105" value="&lt;font style=&quot;font-size: 10px;&quot;&gt;Boton rojo&lt;/font&gt;" style="edgeLabel;html=1;align=center;verticalAlign=middle;resizable=0;points=[];fontSize=10;" parent="4VLI2H_Ible5iAtLYrgy-103" vertex="1" connectable="0">
          <mxGeometry x="-0.9173" relative="1" as="geometry">
            <mxPoint x="100" as="offset" />
          </mxGeometry>
        </mxCell>
        <mxCell id="4VLI2H_Ible5iAtLYrgy-106" style="edgeStyle=orthogonalEdgeStyle;rounded=0;orthogonalLoop=1;jettySize=auto;html=1;exitX=0;exitY=0.5;exitDx=0;exitDy=0;entryX=0.855;entryY=0.855;entryDx=0;entryDy=0;entryPerimeter=0;" parent="1" source="4VLI2H_Ible5iAtLYrgy-101" target="4VLI2H_Ible5iAtLYrgy-34" edge="1">
          <mxGeometry relative="1" as="geometry">
            <Array as="points">
              <mxPoint x="104" y="1724" />
              <mxPoint x="104" y="1880" />
              <mxPoint x="724" y="1880" />
              <mxPoint x="724" y="146" />
              <mxPoint x="234" y="146" />
            </Array>
          </mxGeometry>
        </mxCell>
        <mxCell id="4VLI2H_Ible5iAtLYrgy-114" value="Boton verde" style="edgeLabel;html=1;align=center;verticalAlign=middle;resizable=0;points=[];" parent="4VLI2H_Ible5iAtLYrgy-106" vertex="1" connectable="0">
          <mxGeometry x="-0.9709" relative="1" as="geometry">
            <mxPoint x="10" as="offset" />
          </mxGeometry>
        </mxCell>
        <mxCell id="4VLI2H_Ible5iAtLYrgy-101" value="¿Que boton&amp;nbsp;&lt;div&gt;se pulsara?&lt;/div&gt;" style="rhombus;whiteSpace=wrap;html=1;fontSize=9;strokeWidth=2;" parent="1" vertex="1">
          <mxGeometry x="158" y="1684" width="80" height="80" as="geometry" />
        </mxCell>
        <mxCell id="4VLI2H_Ible5iAtLYrgy-107" style="edgeStyle=orthogonalEdgeStyle;rounded=0;orthogonalLoop=1;jettySize=auto;html=1;exitX=0.5;exitY=0;exitDx=0;exitDy=0;entryX=1;entryY=1;entryDx=0;entryDy=0;exitPerimeter=0;" parent="1" source="4VLI2H_Ible5iAtLYrgy-111" target="4VLI2H_Ible5iAtLYrgy-101" edge="1">
          <mxGeometry relative="1" as="geometry">
            <Array as="points">
              <mxPoint x="329" y="1744" />
            </Array>
          </mxGeometry>
        </mxCell>
        <mxCell id="4VLI2H_Ible5iAtLYrgy-109" value="" style="edgeStyle=orthogonalEdgeStyle;rounded=0;orthogonalLoop=1;jettySize=auto;html=1;exitX=0.5;exitY=1;exitDx=0;exitDy=0;entryX=0;entryY=0.5;entryDx=0;entryDy=0;entryPerimeter=0;" parent="1" source="4VLI2H_Ible5iAtLYrgy-101" target="4VLI2H_Ible5iAtLYrgy-111" edge="1">
          <mxGeometry relative="1" as="geometry">
            <mxPoint x="228" y="1764" as="sourcePoint" />
            <mxPoint x="248" y="1744" as="targetPoint" />
            <Array as="points">
              <mxPoint x="198" y="1814" />
            </Array>
          </mxGeometry>
        </mxCell>
        <mxCell id="4VLI2H_Ible5iAtLYrgy-110" value="&lt;font style=&quot;font-size: 10px;&quot;&gt;Boton&lt;/font&gt;&lt;div style=&quot;font-size: 10px;&quot;&gt;&lt;font style=&quot;font-size: 10px;&quot;&gt;blanco&lt;/font&gt;&lt;/div&gt;" style="edgeLabel;html=1;align=center;verticalAlign=middle;resizable=0;points=[];fontSize=10;" parent="4VLI2H_Ible5iAtLYrgy-109" vertex="1" connectable="0">
          <mxGeometry x="-0.8206" y="-1" relative="1" as="geometry">
            <mxPoint x="1" y="32" as="offset" />
          </mxGeometry>
        </mxCell>
        <mxCell id="4VLI2H_Ible5iAtLYrgy-111" value="&lt;font style=&quot;font-size: 11px;&quot;&gt;Cuando se&lt;/font&gt;&lt;div style=&quot;font-size: 11px;&quot;&gt;&lt;font style=&quot;font-size: 11px;&quot;&gt;pulse el boton&lt;/font&gt;&lt;/div&gt;&lt;div style=&quot;font-size: 11px;&quot;&gt;&lt;font style=&quot;font-size: 11px;&quot;&gt;se hara una foto&lt;/font&gt;&lt;/div&gt;&lt;div style=&quot;font-size: 11px;&quot;&gt;&lt;font style=&quot;font-size: 11px;&quot;&gt;y se subira junto&lt;/font&gt;&lt;/div&gt;&lt;div style=&quot;font-size: 11px;&quot;&gt;&lt;font style=&quot;font-size: 11px;&quot;&gt;con el PDF&lt;/font&gt;&lt;/div&gt;" style="strokeWidth=2;html=1;shape=mxgraph.flowchart.annotation_1;align=left;pointerEvents=1;" parent="1" vertex="1">
          <mxGeometry x="304" y="1764" width="50" height="100" as="geometry" />
        </mxCell>
        <mxCell id="4VLI2H_Ible5iAtLYrgy-112" value="" style="edgeStyle=orthogonalEdgeStyle;rounded=0;orthogonalLoop=1;jettySize=auto;html=1;" parent="1" source="4VLI2H_Ible5iAtLYrgy-85" target="4VLI2H_Ible5iAtLYrgy-113" edge="1">
          <mxGeometry relative="1" as="geometry">
            <mxPoint x="198" y="1520" as="sourcePoint" />
            <mxPoint x="198" y="1620" as="targetPoint" />
          </mxGeometry>
        </mxCell>
        <mxCell id="4VLI2H_Ible5iAtLYrgy-113" value="&lt;font style=&quot;font-size: 10px;&quot;&gt;Al cambiar de&lt;/font&gt;&lt;div style=&quot;font-size: 10px;&quot;&gt;&lt;font style=&quot;font-size: 10px;&quot;&gt;una actividad&lt;/font&gt;&lt;/div&gt;&lt;div style=&quot;font-size: 10px;&quot;&gt;&lt;font style=&quot;font-size: 10px;&quot;&gt;a otra se&lt;/font&gt;&lt;/div&gt;&lt;div style=&quot;font-size: 10px;&quot;&gt;&lt;font style=&quot;font-size: 10px;&quot;&gt;habra subido&lt;/font&gt;&lt;/div&gt;&lt;div style=&quot;font-size: 10px;&quot;&gt;&lt;font style=&quot;font-size: 10px;&quot;&gt;el PDF a una&lt;/font&gt;&lt;/div&gt;&lt;div style=&quot;font-size: 10px;&quot;&gt;&lt;font style=&quot;font-size: 10px;&quot;&gt;&lt;font style=&quot;font-size: 10px;&quot;&gt;carpeta&lt;/font&gt;&amp;nbsp;exclusiva&lt;/font&gt;&lt;/div&gt;&lt;div style=&quot;font-size: 10px;&quot;&gt;&lt;font style=&quot;font-size: 10px;&quot;&gt;de esta iteracion&lt;/font&gt;&lt;/div&gt;&lt;div style=&quot;font-size: 10px;&quot;&gt;&lt;font style=&quot;font-size: 10px;&quot;&gt;de la app&lt;/font&gt;&lt;/div&gt;" style="strokeWidth=2;html=1;shape=mxgraph.flowchart.annotation_1;align=left;pointerEvents=1;" parent="1" vertex="1">
          <mxGeometry x="173" y="1550" width="50" height="100" as="geometry" />
        </mxCell>
      </root>
    </mxGraphModel>
  </diagram>
</mxfile>
